<svg width="24" height="24" viewBox="0 0 24 24" fill="none" xmlns="http://www.w3.org/2000/svg">
<path fill-rule="evenodd" clip-rule="evenodd" d="M10.0866 2.3806C10.6932 2.12933 11.3434 2 12 2C12.6566 2 13.3068 2.12933 13.9134 2.3806C14.0357 2.43127 14.1558 2.48669 14.2734 2.5467C14.3465 2.4952 14.4221 2.44688 14.5 2.40192C14.9561 2.13862 15.4734 2 16 2C16.5266 2 17.0439 2.13862 17.5 2.40192C17.9561 2.66523 18.3348 3.04394 18.5981 3.5C18.8614 3.95606 19 4.47339 19 5C19 5.52661 18.8614 6.04394 18.5981 6.5C18.3348 6.95606 17.9561 7.33477 17.5 7.59808C17.3176 7.70339 17.1254 7.78876 16.9267 7.85329C16.7519 8.86264 16.2696 9.80146 15.5355 10.5355C14.5979 11.4732 13.3261 12 12 12C10.6739 12 9.40215 11.4732 8.46447 10.5355C7.73039 9.80146 7.24815 8.86264 7.07333 7.85329C6.87463 7.78876 6.68242 7.70339 6.5 7.59808C6.04394 7.33477 5.66523 6.95606 5.40192 6.5C5.13862 6.04394 5 5.52661 5 5C5 4.47339 5.13862 3.95606 5.40192 3.5C5.66523 3.04394 6.04394 2.66523 6.5 2.40192C6.95606 2.13862 7.47339 2 8 2C8.52661 2 9.04394 2.13862 9.5 2.40192C9.57787 2.44688 9.65348 2.4952 9.72665 2.5467C9.8442 2.48669 9.96427 2.43127 10.0866 2.3806ZM12 4C11.606 4 11.2159 4.0776 10.8519 4.22836C10.6194 4.32468 10.4005 4.44965 10.2 4.6C9.75817 4.93137 9.13137 4.84183 8.8 4.4C8.71923 4.29231 8.61729 4.20169 8.5 4.13397C8.34798 4.04621 8.17554 4 8 4C7.82446 4 7.65202 4.04621 7.5 4.13397C7.34798 4.22174 7.22174 4.34798 7.13397 4.5C7.04621 4.65202 7 4.82446 7 5C7 5.17554 7.04621 5.34798 7.13397 5.5C7.22174 5.65202 7.34798 5.77826 7.5 5.86603C7.65202 5.95379 7.82446 6 8 6H9V7C9 7.79565 9.31607 8.55871 9.87868 9.12132C10.4413 9.68393 11.2044 10 12 10C12.7956 10 13.5587 9.68393 14.1213 9.12132C14.6839 8.55871 15 7.79565 15 7V6H16C16.1755 6 16.348 5.95379 16.5 5.86603C16.652 5.77826 16.7783 5.65202 16.866 5.5C16.9538 5.34798 17 5.17554 17 5C17 4.82446 16.9538 4.65202 16.866 4.5C16.7783 4.34798 16.652 4.22174 16.5 4.13397C16.348 4.04621 16.1755 4 16 4C15.8245 4 15.652 4.04621 15.5 4.13397C15.3827 4.20169 15.2808 4.29231 15.2 4.4C14.8686 4.84183 14.2418 4.93137 13.8 4.6C13.5995 4.44965 13.3806 4.32468 13.1481 4.22836C12.7841 4.0776 12.394 4 12 4Z" fill="#2B2D33"/>
<path fill-rule="evenodd" clip-rule="evenodd" d="M4 19C4 17.698 4.88157 16.7449 6 16.293V15H5C3.34315 15 2 13.6569 2 12C2 10.3431 3.34315 9 5 9H6V11H5C4.44772 11 4 11.4477 4 12C4 12.5523 4.44772 13 5 13H7C7.55228 13 8 13.4477 8 14V16.0321C9.21044 16.1869 10.3671 16.8949 10.8101 18H13.1899C13.6329 16.8949 14.7896 16.1869 16 16.0321V14C16 13.4477 16.4477 13 17 13H19C19.5523 13 20 12.5523 20 12C20 11.4477 19.5523 11 19 11H18V9H19C20.6569 9 22 10.3431 22 12C22 13.6569 20.6569 15 19 15H18V16.293C19.1184 16.7449 20 17.698 20 19C20 20.8536 18.2132 22 16.5 22C15.1207 22 13.6937 21.2569 13.1899 20H10.8101C10.3063 21.2569 8.8793 22 7.5 22C5.78677 22 4 20.8536 4 19ZM7.5 18C6.45181 18 6 18.6444 6 19C6 19.3556 6.45181 20 7.5 20C8.54819 20 9 19.3556 9 19C9 18.6444 8.54819 18 7.5 18ZM15 19C15 18.6444 15.4518 18 16.5 18C17.5482 18 18 18.6444 18 19C18 19.3556 17.5482 20 16.5 20C15.4518 20 15 19.3556 15 19Z" fill="#2B2D33"/>
</svg>
