<svg width="24" height="24" viewBox="0 0 24 24" fill="none" xmlns="http://www.w3.org/2000/svg">
<path fill-rule="evenodd" clip-rule="evenodd" d="M12.7071 11.2929C12.1792 10.7649 11.6469 10.3447 11.1236 10.0121C12.2775 7.63158 12.1924 4.82098 10.8683 2.50391L9.13184 3.49618C10.1312 5.24516 10.1916 7.3682 9.31284 9.16234C8.84256 9.01426 8.39596 8.92668 7.98544 8.88107C7.3263 8.80784 6.77193 8.84383 6.3742 8.90066C6.17506 8.92912 6.01404 8.96296 5.89731 8.9915C5.80589 9.01385 5.71391 9.0372 5.62658 9.07234C5.35539 9.18149 5.14443 9.40452 5.05134 9.68377L1.05134 21.6838C0.932887 22.0391 1.02297 22.4309 1.28475 22.6988C1.54652 22.9668 1.93609 23.0659 2.29411 22.9558L15.2941 18.9558C15.6976 18.8316 15.9779 18.4683 15.9988 18.0502C16.0106 17.8144 15.9764 17.5763 15.9431 17.343C15.8887 16.9623 15.7822 16.4344 15.5737 15.8088C15.1555 14.5541 14.3293 12.9151 12.7071 11.2929ZM4.94998 16.3124L5.58408 14.4101L12.3203 17.7783L10.1044 18.4601L4.94998 16.3124ZM4.31583 18.2149L3.5632 20.4728L7.11321 19.3804L4.31583 18.2149ZM13.5815 16.1728L6.22296 12.4935L6.76522 10.8667C7.0176 10.838 7.35988 10.8239 7.76461 10.8688C8.68018 10.9706 9.96468 11.3788 11.2929 12.7071C12.5506 13.9648 13.2217 15.2085 13.5815 16.1728Z" fill="#2B2D33"/>
<path d="M13.293 8.2929L14.4426 7.14333C16.455 5.13092 19.1808 3.99475 22.0268 3.98208L22.0357 5.98206C19.717 5.99238 17.4963 6.91802 15.8568 8.55755L14.7072 9.70712L13.293 8.2929Z" fill="#2B2D33"/>
<path d="M17.8675 17.0089C19.4482 16.797 21.0304 17.3881 22.0851 18.5843L22.7501 19.3386L21.2499 20.6613L20.5849 19.907C19.9717 19.2116 19.052 18.868 18.1331 18.9911L17.8675 17.0089Z" fill="#2B2D33"/>
<path fill-rule="evenodd" clip-rule="evenodd" d="M3 2V4H1V6H3V8H5V6H7V4H5V2H3ZM5 4V6H3V4H5Z" fill="#2B2D33"/>
<path d="M14 2V4H16V2H14Z" fill="#2B2D33"/>
<path d="M16 23V21H18V23H16Z" fill="#2B2D33"/>
<path fill-rule="evenodd" clip-rule="evenodd" d="M19 11H17V13H19V15H21V13H23V11H21V9H19V11ZM21 11V13H19V11H21Z" fill="#2B2D33"/>
</svg>
