<svg width="24" height="24" viewBox="0 0 24 24" fill="none" xmlns="http://www.w3.org/2000/svg">
<path fill-rule="evenodd" clip-rule="evenodd" d="M12 1C12.4053 1 12.7704 1.24455 12.9247 1.61925L15.911 8.87169L20.3668 5.22604C20.6912 4.96065 21.1466 4.92568 21.5077 5.13844C21.8688 5.3512 22.0589 5.76654 21.9839 6.17889L20 17.0902V21C20 21.5523 19.5523 22 19 22H5.00005C4.44776 22 4.00005 21.5523 4.00005 21V17.0902L2.01618 6.17889C1.94121 5.76654 2.13131 5.3512 2.4924 5.13844C2.85348 4.92568 3.30892 4.96065 3.63329 5.22604L8.08907 8.87169L11.0754 1.61925C11.2297 1.24455 11.5948 1 12 1ZM6.00005 18V20H18V18H6.00005ZM18.1655 16L19.5301 8.49478L16.1333 11.274C15.8881 11.4745 15.5625 11.5471 15.2553 11.4696C14.9482 11.3921 14.696 11.1736 14.5754 10.8807L12 4.6264L9.42473 10.8807C9.30412 11.1736 9.05189 11.3921 8.74477 11.4696C8.43765 11.5471 8.11196 11.4745 7.86681 11.274L4.47004 8.49478L5.83463 16H18.1655Z" fill="#2B2D33"/>
</svg>
