<svg width="24" height="24" viewBox="0 0 24 24" fill="none" xmlns="http://www.w3.org/2000/svg">
<path fill-rule="evenodd" clip-rule="evenodd" d="M13.9999 9C13.9999 7.15569 14.461 5.92021 15.1275 5.1585C15.7428 4.45531 16.6282 4.04668 17.7932 4.00376C17.8629 4.0766 17.9565 4.19072 18.0713 4.35471C18.3572 4.76306 18.6751 5.33641 18.9805 5.94721C19.2821 6.55034 19.5554 7.15747 19.7542 7.61636C19.7769 7.66855 19.7985 7.71873 19.819 7.76669L19.8025 7.78324L18.4471 7.10557C18.1633 6.96365 17.8289 6.96488 17.5462 7.10889C17.2634 7.25289 17.0657 7.52257 17.0135 7.8356L16.5135 10.8356C16.491 10.9709 16.4965 11.1094 16.5298 11.2425L18.0298 17.2425L19.9701 16.7575L18.5205 10.9592L18.7637 9.49994L19.5527 9.89443C19.9377 10.0869 20.4027 10.0115 20.707 9.70711L21.707 8.70711C21.9899 8.42424 22.0768 7.99948 21.9282 7.62807L21.9278 7.62707L21.9216 7.61169L21.9036 7.56714C21.8879 7.52864 21.8651 7.47291 21.8359 7.40242C21.7775 7.26148 21.6934 7.06116 21.5894 6.82114C21.382 6.34253 21.0928 5.69966 20.7694 5.05279C20.4498 4.41359 20.0802 3.73694 19.7098 3.20779C19.5266 2.94608 19.3175 2.683 19.0886 2.4749C18.8944 2.29832 18.5139 2 17.9999 2C16.2674 2 14.7212 2.58572 13.6224 3.8415C12.7115 4.88251 12.1855 6.29542 12.041 8H7.82835C7.81075 7.95021 7.79182 7.90085 7.77156 7.85195C7.6208 7.48797 7.39982 7.15726 7.12124 6.87868C6.84267 6.6001 6.51195 6.37913 6.14797 6.22836C5.784 6.0776 5.39389 6 4.99992 6C4.60596 6 4.21585 6.0776 3.85187 6.22836C3.4879 6.37913 3.15718 6.6001 2.8786 6.87868C2.60003 7.15726 2.37905 7.48797 2.22829 7.85195C2.07752 8.21593 1.99992 8.60603 1.99992 9V11H3.99992V9C3.99992 8.86868 4.02579 8.73864 4.07604 8.61732C4.1263 8.49599 4.19996 8.38575 4.29282 8.29289C4.38568 8.20003 4.49591 8.12638 4.61724 8.07612C4.73857 8.02587 4.8686 8 4.99992 8C5.13125 8 5.26128 8.02587 5.38261 8.07612C5.50393 8.12638 5.61417 8.20003 5.70703 8.29289C5.79989 8.38575 5.87355 8.49599 5.9238 8.61732C5.96098 8.70706 5.98481 8.80157 5.99469 8.89784L4.02979 16.7575L5.97007 17.2425L7.7807 10H12.9999C13.5522 10 13.9999 9.55228 13.9999 9ZM17.7012 3.92105C17.7012 3.92105 17.7065 3.92369 17.7175 3.93254C17.7067 3.92606 17.7012 3.92105 17.7012 3.92105Z" fill="#2B2D33"/>
<path d="M8.83908 14.4486C9.69486 13.5457 10.802 13 11.9999 13C13.1978 13 14.305 13.5457 15.1608 14.4486C16.0113 15.346 16.5873 16.5621 16.8452 17.8852L14.8821 18.2678C14.6841 17.2519 14.2558 16.4012 13.7092 15.8245C13.1678 15.2533 12.5631 15 11.9999 15C11.4367 15 10.832 15.2533 10.2907 15.8245C9.74405 16.4012 9.31572 17.2519 9.11775 18.2678L7.15468 17.8852C7.41251 16.5621 7.98854 15.346 8.83908 14.4486Z" fill="#2B2D33"/>
<path d="M17.7611 19.1249C19.4205 18.5519 20.4085 17.8105 20.8 17.1531L22.5184 18.1763C21.7703 19.4326 20.2475 20.3822 18.4139 21.0153C16.5446 21.6608 14.2917 22 11.9999 22C9.70818 22 7.45527 21.6608 5.58592 21.0153C3.75238 20.3822 2.22949 19.4326 1.48145 18.1763L3.19988 17.1531C3.59133 17.8105 4.57935 18.5519 6.23869 19.1249C7.86222 19.6855 9.88898 20 11.9999 20C14.1109 20 16.1376 19.6855 17.7611 19.1249Z" fill="#2B2D33"/>
</svg>
