<svg width="24" height="24" viewBox="0 0 24 24" fill="none" xmlns="http://www.w3.org/2000/svg">
<path fill-rule="evenodd" clip-rule="evenodd" d="M17.7265 6.7424C17.2426 6.2666 15.9076 5.54546 14.4567 6.40134C12.9206 7.30751 12.835 8.74897 12.9379 9.25505C12.9935 9.52828 12.9325 9.81231 12.7696 10.0386C12.6067 10.2649 12.3567 10.4129 12.08 10.4469C10.1684 10.6818 8.27741 9.94647 6.77078 9.05511C6.06719 8.63885 5.41754 8.17094 4.85093 7.70919C4.9205 8.12605 5.05188 8.4891 5.21252 8.80898C5.59836 9.57731 6.17129 10.1406 6.6783 10.6391L6.68713 10.6477C7.00205 10.9574 7.07657 11.4369 6.87046 11.8275C6.66436 12.2181 6.22644 12.4272 5.7931 12.342L5.7689 12.3373C6.15921 12.69 6.48443 12.839 6.67665 12.8768C7.04057 12.9484 7.335 13.2155 7.44155 13.5708C7.5481 13.926 7.44927 14.3111 7.18479 14.5711C7.07425 14.6798 6.95442 14.7622 6.83395 14.8248C7.59885 15.3312 8.40175 15.7177 8.78578 15.8435C9.14148 15.9601 9.40229 16.2656 9.46168 16.6351C9.52108 17.0047 9.3691 17.3765 9.06784 17.5986C8.31161 18.1563 7.38484 18.5259 6.49727 18.7715C9.66076 19.4978 13.3269 18.4491 15.7359 16.0807C18.2668 13.5923 18.9206 9.94558 18.9206 8.4758C18.9206 8.20764 19.0283 7.95072 19.2195 7.76272C19.6045 7.38422 19.8129 6.9367 19.9156 6.5187L18.7936 6.95995C18.4261 7.10445 18.0081 7.01922 17.7265 6.7424ZM3.7873 13.1496C3.36888 12.6482 2.96983 12.0395 2.60637 11.3248C2.43295 10.9838 2.46929 10.5737 2.69998 10.2685C2.89393 10.0119 3.19667 9.86729 3.51126 9.87159C3.48198 9.81741 3.45328 9.76239 3.42523 9.70654C2.84921 8.55952 2.56621 7.10273 3.02623 5.2936C3.11706 4.9364 3.39701 4.65812 3.75474 4.56942C4.11248 4.48073 4.49 4.596 4.73717 4.86939C5.3421 5.5385 6.4599 6.54738 7.78915 7.3338C8.8254 7.94687 9.90909 8.37706 10.9339 8.47148C11.0543 7.26908 11.6727 5.72163 13.4405 4.67873C15.5572 3.43009 17.5228 4.13641 18.6025 4.88598L20.5499 4.12012C20.8171 4.01506 21.1165 4.02987 21.372 4.16079C21.6274 4.2917 21.8143 4.5261 21.8851 4.80431C22.0901 5.61056 22.1468 7.41669 20.9096 8.87878C20.8081 10.8457 19.9718 14.7207 17.138 17.5069C13.3744 21.2072 6.85788 22.3489 2.40658 19.0665C2.05895 18.8102 1.91519 18.3596 2.05011 17.9493C2.18503 17.539 2.56814 17.2617 3.00007 17.2617C3.51375 17.2617 4.41357 17.195 5.36532 16.9904C5.6443 16.9305 5.91928 16.8604 6.18449 16.7799C6.02332 16.6825 5.86283 16.581 5.70579 16.4765C5.26372 16.1823 4.81881 15.8449 4.44679 15.484C4.09184 15.1396 3.72134 14.6963 3.546 14.1791C3.4425 13.8738 3.49251 13.5374 3.68032 13.2754C3.71272 13.2302 3.74855 13.1882 3.7873 13.1496Z" fill="#2B2D33"/>
</svg>
