<svg width="24" height="24" viewBox="0 0 24 24" fill="none" xmlns="http://www.w3.org/2000/svg">
<path fill-rule="evenodd" clip-rule="evenodd" d="M13 2V5.07089C16.0657 5.5094 18.4906 7.93431 18.9291 11H22C22.3949 11 22.7529 11.2324 22.9135 11.5932C23.0742 11.9539 23.0075 12.3754 22.7433 12.669L18.6411 17.2269L22.207 20.7928L20.7928 22.2071L16.5858 18H13V22H11V18H7.41424L3.20718 22.2071L1.79297 20.7928L5.35889 17.2269L1.25672 12.669C0.992543 12.3754 0.925854 11.9539 1.08652 11.5932C1.24718 11.2324 1.60511 11 2.00002 11H5.07089C5.5094 7.93431 7.93431 5.5094 11 5.07089V2H13ZM7.10002 11C7.56329 8.71776 9.58104 7 12 7C14.419 7 16.4367 8.71776 16.9 11H7.10002ZM6.94538 16L4.24538 13H19.7547L17.0547 16H6.94538Z" fill="#2B2D33"/>
</svg>
